<svg width="343" height="233" viewBox="0 0 343 233" fill="none" xmlns="http://www.w3.org/2000/svg">
<path d="M152.09 0.336337C89.7677 -3.56288 67.6617 27.0864 35.9858 58.7881C4.30987 90.4898 -10.3309 123.951 8.0751 171.585C26.4811 219.218 69.941 231.333 138.152 231.333C206.363 231.333 276.608 237.968 312.183 212.059C347.757 186.15 359.876 126.943 308.333 95.9631C277.974 77.7146 238.245 5.72687 152.09 0.336337Z" fill="#F8F6F2"/>
<path d="M160.729 120.898C160.729 121.57 160.596 122.235 160.339 122.856C160.081 123.476 159.703 124.04 159.227 124.515C158.751 124.99 158.185 125.367 157.563 125.624C156.941 125.882 156.273 126.014 155.6 126.014V126.014C154.239 126.014 152.935 125.475 151.973 124.515C151.011 123.556 150.47 122.255 150.47 120.898V117.349C150.47 115.992 151.011 114.691 151.973 113.732C152.935 112.773 154.239 112.234 155.6 112.234V112.234C156.96 112.234 158.265 112.773 159.227 113.732C160.189 114.691 160.729 115.992 160.729 117.349V120.898Z" fill="#FFBC45"/>
<path d="M212.992 176.745C211.578 169.855 205.455 151.223 190.538 144.489C175.622 137.756 161.645 143.237 156.465 146.367C151.285 149.497 145.316 161.714 142.647 173.143C139.977 184.572 130.87 184.418 123.804 186.923L127.101 198.825L199.96 199.294L200.117 197.415C219.116 196.318 214.406 183.634 212.992 176.745ZM138.483 194.987C141.388 194.987 154.342 185.279 157.011 185.59C158.344 192.715 158.501 196.474 158.661 196.944C158.821 197.413 139.27 200.858 138.483 194.987Z" fill="#F48462"/>
<path d="M164.368 149.658C163.426 154.146 159.553 181.601 166.148 199.659C171.276 200.076 178.918 199.659 178.918 199.659C177.453 190.16 174.522 163.853 180.593 148.822C174.522 148.926 164.368 149.658 164.368 149.658Z" fill="#FFE4B5"/>
<path d="M167.717 141.514C162.536 141.829 161.332 147.413 163.688 150.858C166.044 154.303 170.491 151.483 171.276 149.762C176.877 155.034 184.152 150.284 185.722 142.455C185.722 141.829 176.826 140.107 167.717 141.514Z" fill="#FFE4B5"/>
<path d="M182.478 113.213C182.242 108.002 176.877 98.0602 164.159 98.6218C155.105 99.3163 154.005 107.87 154.005 107.87C153.691 108.83 152.068 110.861 152.068 110.861C151.597 106.853 154.138 96.2338 165.573 95.9493C178.448 95.6307 184.597 105.677 184.834 112.893C183.812 114.576 182.478 113.213 182.478 113.213Z" fill="#FFBC45"/>
<path d="M157.217 103.355C152.868 106.328 150.264 111.27 152.467 116.187C154.671 121.104 155.297 123.272 153.159 127.119C150.152 132.534 148.885 137.584 151.148 142.178C164.786 140.3 170.789 138.771 170.789 138.771C170.789 138.771 165.514 102.781 157.217 103.355Z" fill="#231F20"/>
<path d="M177.464 128.118C177.464 128.118 180.837 138.254 181.157 142.537C181.448 146.466 168.417 149.084 167.492 144.968C166.529 140.07 165.097 131.743 165.097 131.743" fill="#FBC7B1"/>
<path d="M178.547 132.351L177.464 128.118L165.097 131.743C165.097 131.743 165.538 134.302 166.102 137.508C168.455 137.966 170.891 137.72 173.105 136.803C175.319 135.886 177.212 134.337 178.547 132.351V132.351Z" fill="#AB5D2D"/>
<path d="M155.846 123.194C155.918 124.799 156.306 126.374 156.988 127.829C157.67 129.284 158.633 130.591 159.821 131.675C161.01 132.759 162.401 133.599 163.915 134.147C165.429 134.695 167.037 134.94 168.646 134.869V134.869C170.256 134.797 171.835 134.41 173.295 133.73C174.754 133.049 176.065 132.089 177.152 130.903C178.239 129.718 179.082 128.33 179.631 126.82C180.18 125.31 180.426 123.706 180.354 122.102L179.775 109.179C179.704 107.575 179.315 106 178.633 104.544C177.951 103.089 176.988 101.782 175.799 100.698C174.61 99.6143 173.219 98.7744 171.705 98.2265C170.19 97.6787 168.583 97.4336 166.973 97.5054V97.5054C165.364 97.577 163.785 97.964 162.326 98.6442C160.866 99.3245 159.556 100.285 158.469 101.47C157.382 102.655 156.539 104.043 155.99 105.553C155.441 107.063 155.195 108.666 155.267 110.27L155.846 123.194Z" fill="#FBC7B1"/>
<path d="M172.034 109.814C170.485 108.984 168.452 108.6 166.834 109.433C166.228 109.744 166.762 110.654 167.366 110.342C168.627 109.693 170.305 110.084 171.499 110.723C172.099 111.044 172.633 110.135 172.032 109.814H172.034Z" fill="#31241C"/>
<path d="M157.243 111.519C157.609 111.185 158.05 110.943 158.529 110.814C159.008 110.684 159.512 110.671 159.997 110.776C160.662 110.912 160.945 109.897 160.277 109.76C159.612 109.612 158.921 109.627 158.262 109.804C157.604 109.98 156.999 110.314 156.497 110.775C156.002 111.243 156.751 111.986 157.243 111.518V111.519Z" fill="#31241C"/>
<path d="M164.551 120.944C164.453 120.945 164.358 120.91 164.285 120.845L161.895 118.746C161.847 118.704 161.81 118.652 161.787 118.592C161.764 118.533 161.755 118.469 161.762 118.406C161.769 118.343 161.79 118.282 161.825 118.229C161.86 118.176 161.908 118.132 161.963 118.1L164.371 116.749C164.463 116.698 164.572 116.685 164.674 116.714C164.775 116.743 164.861 116.81 164.913 116.902C164.965 116.993 164.978 117.102 164.95 117.203C164.922 117.305 164.855 117.391 164.763 117.443L162.846 118.519L164.816 120.247C164.877 120.301 164.92 120.372 164.939 120.451C164.959 120.529 164.954 120.612 164.925 120.688C164.896 120.763 164.844 120.828 164.777 120.874C164.711 120.92 164.631 120.945 164.55 120.944H164.551Z" fill="#31241C"/>
<path d="M165.436 124.323C164.809 124.333 164.193 124.157 163.666 123.817C163.581 123.757 163.523 123.666 163.504 123.563C163.486 123.46 163.509 123.355 163.567 123.268C163.626 123.182 163.717 123.123 163.819 123.102C163.922 123.082 164.028 123.102 164.116 123.159C164.508 123.388 164.953 123.513 165.407 123.522C165.861 123.532 166.31 123.425 166.712 123.213C167.042 123.031 167.31 122.757 167.482 122.423C167.654 122.089 167.723 121.712 167.679 121.339C167.674 121.233 167.712 121.13 167.783 121.052C167.855 120.974 167.954 120.928 168.06 120.923C168.166 120.918 168.27 120.955 168.348 121.027C168.426 121.098 168.473 121.197 168.478 121.303C168.528 121.824 168.424 122.347 168.18 122.81C167.936 123.273 167.561 123.655 167.102 123.908C166.591 124.184 166.018 124.327 165.436 124.323V124.323Z" fill="#31241C"/>
<path d="M167.232 116.537C167.336 116.812 167.52 117.05 167.76 117.221C168 117.392 168.285 117.488 168.58 117.497C168.874 117.506 169.165 117.428 169.415 117.272C169.665 117.117 169.863 116.891 169.985 116.623C170.106 116.355 170.145 116.057 170.096 115.767C170.048 115.477 169.915 115.208 169.713 114.994C169.511 114.779 169.25 114.63 168.963 114.563C168.676 114.497 168.375 114.517 168.1 114.62C167.916 114.689 167.749 114.794 167.606 114.927C167.463 115.061 167.348 115.222 167.267 115.4C167.187 115.578 167.142 115.77 167.136 115.965C167.13 116.16 167.162 116.355 167.232 116.537V116.537Z" fill="#1A191F"/>
<path d="M158.319 117.07C158.423 117.345 158.607 117.583 158.846 117.754C159.086 117.925 159.371 118.022 159.666 118.031C159.961 118.041 160.252 117.963 160.502 117.808C160.752 117.652 160.951 117.427 161.072 117.159C161.194 116.891 161.233 116.593 161.185 116.303C161.137 116.013 161.004 115.744 160.802 115.529C160.6 115.315 160.339 115.164 160.052 115.098C159.765 115.031 159.465 115.051 159.189 115.155C158.819 115.294 158.519 115.573 158.356 115.933C158.193 116.292 158.18 116.701 158.319 117.07V117.07Z" fill="#1A191F"/>
<path d="M158.705 116.718C158.64 116.718 158.577 116.7 158.523 116.665L157.068 115.777C156.989 115.728 156.932 115.65 156.911 115.56C156.889 115.47 156.904 115.375 156.953 115.296C157.001 115.217 157.079 115.16 157.17 115.139C157.26 115.117 157.355 115.132 157.435 115.18L158.889 116.069C158.954 116.109 159.004 116.169 159.032 116.24C159.06 116.311 159.064 116.389 159.043 116.463C159.023 116.536 158.978 116.601 158.917 116.647C158.856 116.692 158.781 116.717 158.705 116.717V116.718Z" fill="#1A191F"/>
<path d="M169.268 116.196C169.193 116.196 169.121 116.172 169.061 116.128C169 116.084 168.956 116.022 168.934 115.951C168.911 115.88 168.912 115.803 168.936 115.733C168.961 115.662 169.007 115.601 169.068 115.559L170.589 114.508C170.666 114.458 170.758 114.441 170.848 114.458C170.937 114.476 171.016 114.528 171.068 114.602C171.12 114.677 171.141 114.769 171.126 114.859C171.111 114.948 171.062 115.029 170.988 115.083L169.467 116.134C169.409 116.174 169.339 116.196 169.268 116.196V116.196Z" fill="#1A191F"/>
<path d="M192.019 123.272C189.984 118.901 192.498 116.187 191.413 112.022C190.464 108.38 186.116 108.493 183.874 103.333C180.438 95.4224 162.759 88.2988 156.167 104.353C163.494 99.3984 171.006 101.974 173.857 105.637C179.607 113.024 173.707 116.153 175.926 120.546C177.543 123.747 178.603 125.903 176.511 130.747C174.42 135.592 177.347 140.197 177.347 140.197C184.189 139.442 191.924 138.771 198.951 137.584C198.953 125.762 194.052 127.643 192.019 123.272Z" fill="#231F20"/>
<path d="M160.913 183.792C154.95 184.313 152.644 186.088 147.305 188.907C141.965 191.726 140.815 192.352 142.071 192.874C138.929 193.083 140.761 194.752 142.96 194.021C141.496 194.648 143.536 195.327 146.467 194.233C147.2 195.381 150.969 194.861 153.377 193.503C155.784 192.146 161.541 190.997 166.775 192.772C167.404 189.533 165.415 183.899 165.415 183.899L160.913 183.792Z" fill="#FBC7B1"/>
<path d="M164.707 183.87C167.926 183.166 176.929 182.436 182.268 182.748C182.582 186.923 180.279 195.379 180.279 195.379L166.042 192.246C166.042 192.246 166.75 187.782 164.707 183.87Z" fill="#FFBC45"/>
<path d="M169.083 154.19C169.261 155.133 170.598 155.1 171.031 154.372C171.124 154.175 171.135 153.95 171.062 153.745C170.988 153.54 170.836 153.373 170.639 153.28C170.409 153.141 170.137 153.088 169.871 153.131C169.605 153.174 169.363 153.31 169.189 153.515C168.994 153.798 169.455 154.063 169.649 153.781C169.883 153.443 170.862 153.796 170.518 154.175C170.257 154.464 169.679 154.486 169.596 154.047C169.532 153.711 169.019 153.854 169.083 154.188V154.19Z" fill="#1F0E03"/>
<path d="M168.377 158.119C168.242 159.058 169.336 159.322 169.967 158.799C170.14 158.671 170.258 158.482 170.299 158.27C170.34 158.059 170.3 157.84 170.187 157.656C170.025 157.504 169.821 157.404 169.601 157.37C169.381 157.336 169.156 157.369 168.956 157.465C168.63 157.568 168.77 158.081 169.098 157.977C169.199 157.93 169.309 157.904 169.421 157.9C169.533 157.896 169.644 157.915 169.749 157.955C169.913 158.051 169.692 158.348 169.604 158.412C169.41 158.554 168.834 158.659 168.891 158.26C168.939 157.925 168.426 157.782 168.377 158.119V158.119Z" fill="#1F0E03"/>
<path d="M168.054 163.201C168.1 164.266 169.676 163.841 169.834 163.037C170.026 162.055 168.309 161.517 168.141 162.583C168.088 162.918 168.602 163.06 168.655 162.724C168.72 162.314 169.307 162.595 169.314 162.913C169.32 163.164 168.599 163.505 168.586 163.201C168.571 162.86 168.039 162.859 168.054 163.201Z" fill="#1F0E03"/>
<path d="M151.496 123.959C150.66 130.151 159.832 130.171 163.794 129.984C164.136 129.968 164.138 129.437 163.794 129.453C160.299 129.619 151.243 129.786 152.011 124.101C152.057 123.766 151.543 123.623 151.498 123.959H151.496Z" fill="#1F0E03"/>
<path d="M166.881 129.641C166.881 130.52 166.001 131.233 164.917 131.233C163.833 131.233 162.956 130.52 162.956 129.641C162.956 128.761 163.834 128.048 164.917 128.048C166.001 128.048 166.881 128.761 166.881 129.641Z" fill="#FFBC45"/>
<path d="M165.573 95.9494C159.05 96.1124 155.425 99.636 153.599 103.378C154.241 103.45 154.866 103.623 155.452 103.893C156.804 101.557 159.368 98.9899 164.159 98.6219C176.878 98.0602 182.242 108.002 182.478 113.213C182.478 113.213 183.813 114.576 184.834 112.894C184.597 105.677 178.448 95.6287 165.573 95.9494Z" fill="#FFBC45"/>
<path d="M188.969 120.898C188.969 122.255 188.428 123.556 187.466 124.515C186.505 125.475 185.2 126.014 183.84 126.014V126.014C183.166 126.014 182.499 125.882 181.876 125.625C181.254 125.368 180.688 124.991 180.212 124.516C179.736 124.041 179.358 123.477 179.1 122.856C178.842 122.235 178.71 121.57 178.71 120.898V117.349C178.71 116.677 178.843 116.012 179.1 115.391C179.358 114.77 179.736 114.207 180.212 113.732C180.689 113.257 181.254 112.88 181.877 112.623C182.499 112.366 183.166 112.234 183.84 112.234V112.234C185.2 112.234 186.504 112.773 187.466 113.732C188.428 114.691 188.969 115.992 188.969 117.349V120.898Z" fill="#FFBC45"/>
<path d="M187.76 120.352C187.738 121.081 187.463 121.781 186.982 122.33C186.5 122.88 185.842 123.245 185.119 123.363C184.397 123.482 183.656 123.346 183.023 122.979C182.391 122.613 181.905 122.038 181.651 121.354C181.27 120.386 181.487 119.018 181.487 117.997C181.487 114.464 186.359 113.856 187.596 116.996C187.976 117.963 187.76 119.332 187.76 120.352C187.76 120.422 187.788 120.49 187.838 120.54C187.888 120.589 187.955 120.617 188.026 120.617C188.097 120.617 188.164 120.589 188.214 120.54C188.264 120.49 188.292 120.422 188.292 120.352C188.292 118.222 188.501 116.167 186.475 114.84C184.02 113.232 181.098 115.39 180.955 117.997C180.841 120.093 180.824 122.235 182.771 123.511C185.227 125.118 188.148 122.96 188.292 120.352C188.311 120.01 187.778 120.012 187.76 120.352Z" fill="#1F0E03"/>
<path d="M127.729 194.648H168.66C170.545 194.648 170.963 198.407 167.823 198.407H73.9237C71.0973 192.769 58.431 158.321 57.1746 155.085C55.9181 151.849 57.0681 148.091 62.1999 148.091H98.21C101.978 148.091 106.166 148.716 108.782 154.458C111.399 160.201 127.729 194.648 127.729 194.648Z" fill="#40507F"/>
<path d="M168.789 198.257C168.906 198.216 169.019 198.165 169.128 198.106C169.138 198.103 169.147 198.098 169.156 198.092C170.764 197.194 170.213 194.648 168.66 194.648H127.729L127.697 194.579C127.678 194.54 127.653 194.487 127.618 194.413C127.472 194.106 127.189 193.506 126.788 192.661C123.274 185.25 111.019 159.367 108.782 154.46C106.165 148.717 101.978 148.093 98.2098 148.093H94.8589C98.6282 148.093 102.815 148.717 105.432 154.46C108.05 160.203 124.38 194.649 124.38 194.649L125.793 198.306C125.793 198.306 127.558 198.347 130.374 198.407H167.823C167.999 198.408 168.174 198.394 168.348 198.367C168.446 198.349 168.543 198.325 168.639 198.295C168.688 198.281 168.743 198.273 168.789 198.257Z" fill="#40507F"/>
<path d="M93.709 173.772C94.7424 176.32 93.5179 178.385 90.9746 178.385C88.4314 178.385 85.5303 176.32 84.4975 173.772C83.4646 171.223 84.6886 169.156 87.2324 169.156C89.7762 169.156 92.6751 171.223 93.709 173.772Z" stroke="#1F0E03" stroke-miterlimit="10"/>
<path d="M216.68 201.32H69.0181V224.662C85.2284 228.103 107.076 230.59 128.593 230.861C158.046 231.233 188.587 230.899 216.682 229.536L216.68 201.32Z" fill="#F5CDB3"/>
<path d="M222.807 200.739C222.807 201.408 222.541 202.049 222.066 202.522C221.592 202.995 220.948 203.261 220.277 203.261H65.419C64.7483 203.261 64.105 202.995 63.6308 202.522C63.1566 202.049 62.8901 201.408 62.8901 200.739C62.8901 200.07 63.1565 199.428 63.6308 198.955C64.105 198.482 64.7482 198.216 65.419 198.216H220.277C220.948 198.216 221.592 198.482 222.066 198.955C222.541 199.428 222.807 200.07 222.807 200.739Z" fill="#C97440"/>
<path d="M51.2231 111.318C54.7332 114.635 57.5996 114.635 57.5932 111.318C57.5868 108.002 57.5746 102.576 57.5682 99.2599C57.5618 95.9438 54.6837 93.2283 51.1827 93.2283H38.4424C34.9393 93.2283 34.9451 95.9422 38.4552 99.2583C41.9653 102.574 47.7093 108.002 51.2231 111.318Z" fill="#F7B369"/>
<path d="M39.4906 32.0024H114.505C119.925 32.0024 125.122 34.1493 128.954 37.9708C132.787 41.7922 134.939 46.9752 134.939 52.3795V79.2252C134.939 84.6294 132.787 89.8122 128.955 93.6336C125.122 97.4549 119.925 99.6017 114.506 99.6017H39.4901C34.0705 99.6017 28.873 97.4549 25.0408 93.6334C21.2086 89.812 19.0557 84.629 19.0557 79.2246V52.3801C19.0557 46.9756 21.2086 41.7925 25.0409 37.9709C28.8732 34.1494 34.0709 32.0024 39.4906 32.0024V32.0024Z" fill="#F7B369"/>
<path d="M75.8284 42.8012V48.4812H74.7324V46.0572H72.1564V48.4812H71.0524V42.8012H72.1564V45.0972H74.7324V42.8012H75.8284ZM80.9574 47.5132V48.4812H77.0134V42.8012H80.8854V43.7692H78.1174V45.1372H80.5094V46.0332H78.1174V47.5132H80.9574ZM81.8181 48.4812V42.8012H82.9221V47.5132H85.8181V48.4812H81.8181ZM86.4899 48.4812V42.8012H88.8979C89.1593 42.8012 89.3993 42.8572 89.6179 42.9692C89.8419 43.0759 90.0339 43.2199 90.1939 43.4012C90.3539 43.5772 90.4793 43.7799 90.5699 44.0092C90.6606 44.2332 90.7059 44.4599 90.7059 44.6892C90.7059 44.9292 90.6633 45.1639 90.5779 45.3932C90.4926 45.6172 90.3726 45.8172 90.2179 45.9932C90.0633 46.1692 89.8766 46.3105 89.6579 46.4172C89.4393 46.5239 89.1993 46.5772 88.9379 46.5772H87.5939V48.4812H86.4899ZM87.5939 45.6092H88.8739C89.0766 45.6092 89.2446 45.5265 89.3779 45.3612C89.5166 45.1959 89.5859 44.9719 89.5859 44.6892C89.5859 44.5452 89.5646 44.4172 89.5219 44.3052C89.4793 44.1879 89.4233 44.0892 89.3539 44.0092C89.2846 43.9292 89.2019 43.8705 89.1059 43.8332C89.0153 43.7905 88.9219 43.7692 88.8259 43.7692H87.5939V45.6092ZM91.5783 46.3452V42.7452H92.6503V46.3452H91.5783ZM91.5783 48.4812V47.2732H92.6503V48.4812H91.5783Z" fill="#C97440"/>
<path d="M123.986 58.5361H71.6675V61.9291H123.986V58.5361Z" fill="#FFF2DB"/>
<path d="M116.847 66.7778H71.6675V70.1698H116.847V66.7778Z" fill="#FFF2DB"/>
<path d="M101.635 75.0205H71.6675V78.4124H101.635V75.0205Z" fill="#FFF2DB"/>
<path d="M120.136 83.2605H71.6675V86.654H120.136V83.2605Z" fill="#FFF2DB"/>
<path d="M61.2811 85.3965C59.7222 81.5358 54.328 78.7772 51.5723 78.8133H42.265C39.2048 79.1006 34.1145 81.5353 32.5557 85.3965C36.3957 89.1367 41.5506 91.2306 46.9184 91.2306C52.2862 91.2306 57.441 89.1367 61.2811 85.3965V85.3965Z" fill="#31241C"/>
<path d="M43.1164 70.8894C43.1164 70.8894 42.2252 78.1914 41.6098 82.3203C41.1604 85.3358 52.0144 86.1837 52.3439 82.9324C52.6319 79.0765 52.9631 72.541 52.9631 72.541" fill="#C97440"/>
<path d="M42.6753 74.2447L43.1166 70.8894L52.9633 72.541C52.9633 72.541 52.8605 74.5489 52.7232 77.067C50.9559 77.6363 49.0592 77.6722 47.2715 77.17C45.4838 76.6679 43.8848 75.6502 42.6753 74.2447V74.2447Z" fill="#AB5D2D"/>
<path d="M59.2886 65.1147C59.3818 66.3556 59.229 67.6026 58.8389 68.7845C58.4488 69.9664 57.8291 71.0602 57.0151 72.0033C56.2011 72.9464 55.2088 73.7203 54.0948 74.281C52.9809 74.8417 51.7671 75.178 50.5227 75.2709V75.2709C49.2783 75.3636 48.0278 75.211 46.8425 74.8217C45.6572 74.4324 44.5605 73.8142 43.6148 73.0022C42.6692 72.1903 41.8932 71.2005 41.3311 70.0895C40.7691 68.9784 40.432 67.7679 40.3391 66.527L39.5889 56.5338C39.4959 55.293 39.6489 54.0462 40.0392 52.8644C40.4294 51.6826 41.0493 50.589 41.8634 49.6462C42.6775 48.7033 43.6699 47.9296 44.7839 47.3692C45.8979 46.8089 47.1117 46.4728 48.3559 46.3803V46.3803C49.6002 46.2873 50.8507 46.4396 52.0359 46.8285C53.2212 47.2175 54.318 47.8354 55.2638 48.6471C56.2095 49.4588 56.9857 50.4482 57.5479 51.5591C58.1102 52.6699 58.4475 53.8802 58.5406 55.121L59.2886 65.1147Z" fill="#C97440"/>
<path d="M46.3535 57.5792C47.6405 57.3614 48.7902 56.6481 49.5548 55.5931C49.9525 55.0393 49.0357 54.5143 48.6428 55.0622C48.0164 55.8791 47.0937 56.4185 46.0729 56.5646C45.4064 56.7053 45.6891 57.7204 46.3535 57.5802V57.5792Z" fill="#31241C"/>
<path d="M57.1044 55.5076C56.7683 55.4576 56.4496 55.3264 56.176 55.1254C55.9024 54.9245 55.6823 54.6598 55.5349 54.3545C55.2058 53.7599 54.2933 54.2913 54.6229 54.8854C54.8378 55.3094 55.1484 55.6779 55.5303 55.9619C55.9122 56.2459 56.355 56.4377 56.8238 56.5222C57.4898 56.647 57.7736 55.6319 57.1044 55.5066V55.5076Z" fill="#31241C"/>
<path d="M52.3487 64.2769C52.2717 64.2769 52.1962 64.2546 52.1315 64.2128C52.0669 64.171 52.0157 64.1114 51.9842 64.0412C51.9528 63.9711 51.9423 63.8933 51.9542 63.8174C51.9661 63.7414 51.9997 63.6705 52.0511 63.6132L53.3204 62.1973L51.8637 61.5948C51.8153 61.5747 51.7713 61.5454 51.7342 61.5084C51.6971 61.4715 51.6677 61.4276 51.6476 61.3792C51.6275 61.3309 51.6172 61.2791 51.6172 61.2269C51.6172 61.1746 51.6275 61.1228 51.6476 61.0745C51.6676 61.0261 51.697 60.9822 51.7341 60.9453C51.7712 60.9083 51.8152 60.879 51.8637 60.8589C51.9121 60.8389 51.9641 60.8286 52.0165 60.8286C52.0689 60.8286 52.1209 60.8389 52.1693 60.8589L54.1461 61.6765C54.205 61.7009 54.2571 61.7391 54.2982 61.7877C54.3393 61.8363 54.3681 61.894 54.3823 61.956C54.3964 62.0179 54.3955 62.0824 54.3796 62.144C54.3638 62.2055 54.3333 62.2624 54.2909 62.3099L52.6463 64.1441C52.609 64.186 52.5631 64.2195 52.5118 64.2424C52.4605 64.2652 52.4049 64.277 52.3487 64.2769Z" fill="#31241C"/>
<path d="M49.9484 68.3047C49.8636 68.3047 49.781 68.2779 49.7126 68.2281C49.6442 68.1782 49.5934 68.1079 49.5677 68.0274C49.5419 67.9469 49.5426 67.8603 49.5695 67.7801C49.5964 67.7 49.6482 67.6305 49.7173 67.5816C51.29 66.4731 52.6987 66.0271 53.9158 66.2544C53.9673 66.2641 54.0164 66.2839 54.0603 66.3126C54.1041 66.3413 54.1419 66.3783 54.1714 66.4215C54.2009 66.4647 54.2216 66.5134 54.2323 66.5646C54.243 66.6158 54.2434 66.6686 54.2336 66.72C54.2238 66.7713 54.204 66.8203 54.1752 66.864C54.1465 66.9078 54.1094 66.9454 54.066 66.9749C54.0226 67.0043 53.9739 67.0249 53.9225 67.0356C53.8712 67.0462 53.8182 67.0467 53.7667 67.0369C52.7759 66.8495 51.5674 67.2493 50.1789 68.2298C50.1117 68.2781 50.0311 68.3042 49.9484 68.3047Z" fill="#31241C"/>
<path d="M49.915 61.0423C49.8603 61.2634 49.741 61.4633 49.5724 61.6168C49.4037 61.7703 49.1931 61.8705 48.9674 61.9047C48.7416 61.9389 48.5107 61.9056 48.3039 61.809C48.0971 61.7124 47.9237 61.5568 47.8056 61.3619C47.6875 61.167 47.63 60.9415 47.6403 60.714C47.6507 60.4866 47.7285 60.2672 47.8638 60.0838C47.9992 59.9004 48.186 59.7611 48.4007 59.6836C48.6154 59.606 48.8484 59.5937 49.0701 59.6482C49.3674 59.7215 49.6234 59.9095 49.7819 60.1709C49.9403 60.4323 49.9882 60.7457 49.915 61.0423V61.0423Z" fill="#1A191F"/>
<path d="M56.8205 60.6307C56.7663 60.8521 56.6473 61.0525 56.4788 61.2065C56.3102 61.3605 56.0996 61.4612 55.8737 61.4958C55.6477 61.5305 55.4166 61.4974 55.2094 61.401C55.0023 61.3045 54.8285 61.1489 54.7101 60.9539C54.5916 60.759 54.5339 60.5333 54.5441 60.3056C54.5544 60.0778 54.6321 59.8582 54.7676 59.6746C54.903 59.4909 55.09 59.3515 55.305 59.2739C55.5199 59.1963 55.7531 59.184 55.9751 59.2386C56.2721 59.3117 56.528 59.4994 56.6865 59.7603C56.845 60.0213 56.8932 60.3343 56.8205 60.6307V60.6307Z" fill="#1A191F"/>
<path d="M42.1602 64.0186C42.2673 64.4576 42.2866 64.9134 42.217 65.3599C42.1474 65.8063 41.9902 66.2348 41.7544 66.6206C41.5187 67.0065 41.209 67.3422 40.843 67.6087C40.4771 67.8751 40.0621 68.067 39.6217 68.1734V68.1734C39.1815 68.2804 38.7244 68.2997 38.2766 68.2304C37.8289 68.1611 37.3992 68.0045 37.0121 67.7695C36.6251 67.5345 36.2883 67.2258 36.021 66.8609C35.7536 66.4961 35.561 66.0823 35.4541 65.6432L35.1975 64.5872C34.9816 63.7003 35.1278 62.7643 35.604 61.9849C36.0801 61.2056 36.8472 60.6467 37.7365 60.4313V60.4313C38.6258 60.2161 39.5643 60.3619 40.3458 60.8366C41.1273 61.3113 41.6878 62.076 41.9041 62.9626L42.1602 64.0186Z" fill="#C97440"/>
<path d="M36.9541 60.7753C36.1433 58.4717 32.1897 49.1002 38.0689 48.8172C38.4336 45.1386 43.5627 43.1976 49.9685 41.9447C56.3743 40.6917 60.3683 43.6834 59.8817 46.675C59.3951 49.6666 55.4628 50.7587 52.3408 49.8689C51.4486 53.1026 47.1511 52.0127 46.2183 51.365C45.498 54.4973 41.9299 55.2565 42.3361 57.4401C42.7423 59.6237 42.9217 61.8466 43.0042 62.2915C43.0868 62.7364 41.2207 63.606 40.8156 62.7162C40.4104 61.8264 38.8095 60.23 36.9541 60.7753Z" fill="#31241C"/>
<path d="M240.066 94.2148H317.839C323.458 94.2148 328.846 96.4406 332.819 100.403C336.792 104.364 339.024 109.738 339.024 115.341V143.172C339.024 148.775 336.792 154.149 332.819 158.111C328.846 162.072 323.458 164.298 317.839 164.298H240.066C234.448 164.298 229.059 162.072 225.086 158.111C221.113 154.149 218.881 148.775 218.881 143.172V115.341C218.881 109.738 221.113 104.364 225.086 100.402C229.059 96.4406 234.447 94.2148 240.066 94.2148V94.2148Z" fill="#D5CDFF"/>
<path d="M242.866 176.445C239.226 179.882 236.254 179.882 236.261 176.445C236.268 173.008 236.28 167.381 236.287 163.944C236.294 160.507 239.273 157.693 242.905 157.693H256.112C259.745 157.693 259.739 160.506 256.099 163.944L242.866 176.445Z" fill="#D5CDFF"/>
<path d="M239.258 107.803H237.442V112.515H236.346V107.803H234.53V106.835H239.258V107.803ZM244.74 106.835V112.515H243.644V110.091H241.068V112.515H239.964V106.835H241.068V109.131H243.644V106.835H244.74ZM247.541 106.835H248.517L250.677 112.515H249.541L249.013 111.099H247.029L246.509 112.515H245.373L247.541 106.835ZM248.813 110.323L248.029 108.091L247.213 110.323H248.813ZM252.404 108.875V112.515H251.3V106.835H252.156L255.116 110.563V106.843H256.22V112.515H255.324L252.404 108.875ZM257.401 112.515V106.843H258.505V109.539L260.889 106.835H262.105L259.929 109.355L262.241 112.515H261.001L259.233 110.059L258.505 110.819V112.515H257.401ZM266.137 108.323C266.099 108.285 266.03 108.235 265.929 108.171C265.833 108.107 265.713 108.045 265.569 107.987C265.43 107.923 265.278 107.869 265.113 107.827C264.947 107.784 264.779 107.763 264.609 107.763C264.305 107.763 264.078 107.819 263.929 107.931C263.779 108.043 263.705 108.2 263.705 108.403C263.705 108.52 263.731 108.619 263.785 108.699C263.843 108.773 263.926 108.84 264.033 108.899C264.139 108.957 264.273 109.011 264.433 109.059C264.598 109.107 264.787 109.157 265.001 109.211C265.278 109.285 265.529 109.365 265.753 109.451C265.982 109.536 266.174 109.643 266.329 109.771C266.489 109.899 266.611 110.053 266.697 110.235C266.782 110.411 266.825 110.629 266.825 110.891C266.825 111.195 266.766 111.456 266.649 111.675C266.537 111.888 266.382 112.061 266.185 112.195C265.993 112.328 265.769 112.427 265.513 112.491C265.262 112.549 264.998 112.579 264.721 112.579C264.294 112.579 263.873 112.515 263.457 112.387C263.041 112.259 262.667 112.077 262.337 111.843L262.825 110.891C262.873 110.939 262.958 111.003 263.081 111.083C263.209 111.157 263.358 111.235 263.529 111.315C263.699 111.389 263.889 111.453 264.097 111.507C264.305 111.56 264.518 111.587 264.737 111.587C265.345 111.587 265.649 111.392 265.649 111.003C265.649 110.88 265.614 110.776 265.545 110.691C265.475 110.605 265.377 110.531 265.249 110.467C265.121 110.403 264.966 110.344 264.785 110.291C264.603 110.237 264.401 110.179 264.177 110.115C263.905 110.04 263.667 109.96 263.465 109.875C263.267 109.784 263.102 109.68 262.969 109.563C262.835 109.44 262.734 109.301 262.665 109.147C262.601 108.987 262.569 108.797 262.569 108.579C262.569 108.291 262.622 108.035 262.729 107.811C262.835 107.587 262.982 107.4 263.169 107.251C263.361 107.101 263.582 106.989 263.833 106.915C264.083 106.835 264.353 106.795 264.641 106.795C265.041 106.795 265.409 106.859 265.745 106.987C266.081 107.109 266.374 107.256 266.625 107.427L266.137 108.323ZM267.763 110.379V106.779H268.835V110.379H267.763ZM267.763 112.515V111.307H268.835V112.515H267.763Z" fill="#C97440"/>
<path d="M287.224 123.197H232.982V126.713H287.224V123.197Z" fill="#FFF2DB"/>
<path d="M279.823 131.741H232.982V135.26H279.823V131.741Z" fill="#FFF2DB"/>
<path d="M264.05 140.286H232.982V143.803H264.05V140.286Z" fill="#FFF2DB"/>
<path d="M299.673 150.877C301.289 146.874 306.881 144.014 309.738 144.052H319.388C322.56 144.35 327.838 146.874 329.453 150.877C325.472 154.754 320.128 156.924 314.563 156.924C308.998 156.924 303.654 154.754 299.673 150.877V150.877Z" fill="#31241C"/>
<path d="M318.505 135.837C318.505 135.837 319.429 143.407 320.067 147.688C320.533 150.814 309.281 151.693 308.94 148.325C308.641 144.328 308.298 137.553 308.298 137.553" fill="#C97440"/>
<path d="M318.961 139.316L318.504 135.837L308.295 137.55C308.295 137.55 308.402 139.632 308.545 142.243C310.377 142.832 312.343 142.869 314.196 142.348C316.049 141.827 317.707 140.772 318.961 139.316V139.316Z" fill="#AB5D2D"/>
<path d="M301.738 129.851C301.544 132.449 302.392 135.017 304.097 136.992C305.801 138.966 308.222 140.185 310.827 140.38C312.117 140.476 313.414 140.318 314.643 139.915C315.872 139.511 317.009 138.87 317.989 138.029C318.97 137.187 319.774 136.161 320.357 135.009C320.939 133.857 321.289 132.602 321.385 131.315L322.163 120.954C322.259 119.668 322.101 118.375 321.696 117.15C321.291 115.925 320.649 114.791 319.805 113.814C318.961 112.836 317.932 112.034 316.777 111.453C315.622 110.872 314.364 110.523 313.074 110.427V110.427C311.784 110.331 310.488 110.489 309.259 110.892C308.03 111.295 306.893 111.936 305.913 112.778C304.932 113.619 304.128 114.645 303.545 115.797C302.962 116.948 302.612 118.203 302.516 119.49L301.738 129.851Z" fill="#C97440"/>
<path d="M315.226 121.077C314.955 120.557 314.535 120.127 314.021 119.842C313.506 119.557 312.918 119.43 312.331 119.476C311.663 119.553 311.656 120.608 312.331 120.529C312.733 120.485 313.138 120.566 313.493 120.759C313.847 120.952 314.134 121.249 314.314 121.609C314.629 122.212 315.539 121.679 315.226 121.078V121.077Z" fill="#31241C"/>
<path d="M304.526 120.788C304.778 120.529 305.088 120.335 305.431 120.221C305.773 120.107 306.138 120.077 306.495 120.132C307.157 120.292 307.438 119.276 306.777 119.117C306.239 119.013 305.684 119.043 305.161 119.204C304.638 119.366 304.163 119.654 303.779 120.043C303.309 120.534 304.054 121.28 304.524 120.786L304.526 120.788Z" fill="#31241C"/>
<path d="M308.935 128.967C308.878 128.967 308.823 128.956 308.771 128.933C308.72 128.91 308.674 128.876 308.637 128.834L306.933 126.932C306.891 126.885 306.86 126.828 306.844 126.767C306.828 126.705 306.827 126.64 306.842 126.578C306.856 126.517 306.885 126.459 306.926 126.41C306.967 126.362 307.019 126.324 307.078 126.299L309.128 125.45C309.226 125.41 309.336 125.41 309.433 125.45C309.531 125.49 309.609 125.568 309.65 125.666C309.69 125.763 309.69 125.873 309.65 125.97C309.609 126.068 309.531 126.145 309.433 126.186L307.904 126.819L309.235 128.305C309.286 128.362 309.32 128.433 309.332 128.509C309.344 128.585 309.333 128.663 309.302 128.733C309.27 128.804 309.219 128.863 309.154 128.905C309.089 128.947 309.014 128.969 308.937 128.969L308.935 128.967Z" fill="#31241C"/>
<path d="M308.779 134.421C307.686 134.421 306.945 133.266 306.516 130.887C306.504 130.825 306.508 130.761 306.527 130.701C306.545 130.64 306.578 130.585 306.622 130.54C306.666 130.495 306.721 130.461 306.781 130.441C306.84 130.42 306.904 130.414 306.967 130.423C307.881 130.561 308.804 130.628 309.729 130.623C310.367 130.623 311.056 130.597 311.841 130.544C311.914 130.539 311.987 130.553 312.052 130.586C312.117 130.619 312.171 130.669 312.21 130.731C312.248 130.793 312.269 130.864 312.27 130.937C312.27 131.01 312.251 131.081 312.214 131.144C310.907 133.349 309.784 134.421 308.779 134.421ZM307.409 131.286C307.743 132.781 308.233 133.625 308.779 133.625C309.13 133.625 309.881 133.316 311.126 131.384C309.887 131.461 308.643 131.428 307.409 131.286V131.286Z" fill="#31241C"/>
<path d="M311.458 125.627C311.515 125.857 311.638 126.064 311.813 126.223C311.988 126.382 312.207 126.486 312.441 126.521C312.675 126.556 312.914 126.522 313.128 126.421C313.343 126.321 313.523 126.16 313.645 125.958C313.767 125.756 313.827 125.522 313.816 125.286C313.805 125.05 313.725 124.823 313.584 124.633C313.444 124.443 313.25 124.298 313.028 124.218C312.805 124.137 312.563 124.125 312.333 124.181C312.025 124.257 311.76 124.452 311.595 124.723C311.431 124.995 311.382 125.32 311.458 125.627Z" fill="#1A191F"/>
<path d="M304.297 125.203C304.354 125.432 304.477 125.64 304.652 125.799C304.827 125.959 305.045 126.063 305.279 126.099C305.514 126.135 305.753 126.1 305.968 126C306.183 125.9 306.363 125.739 306.485 125.537C306.608 125.335 306.668 125.101 306.658 124.865C306.647 124.629 306.566 124.401 306.426 124.211C306.286 124.02 306.092 123.876 305.869 123.795C305.647 123.715 305.405 123.702 305.175 123.758C304.867 123.834 304.601 124.029 304.437 124.3C304.272 124.57 304.222 124.895 304.297 125.203V125.203Z" fill="#1A191F"/>
<path d="M319.497 128.714C319.273 129.633 319.424 130.603 319.917 131.411C320.411 132.219 321.206 132.798 322.127 133.022C322.584 133.133 323.058 133.153 323.522 133.081C323.986 133.009 324.432 132.846 324.833 132.603C325.235 132.359 325.584 132.039 325.861 131.66C326.138 131.282 326.337 130.853 326.448 130.397L326.714 129.303C326.826 128.848 326.846 128.375 326.774 127.912C326.702 127.449 326.539 127.005 326.294 126.605C326.05 126.205 325.729 125.856 325.35 125.58C324.97 125.304 324.54 125.105 324.083 124.994V124.994C323.161 124.771 322.188 124.922 321.378 125.414C320.567 125.907 319.986 126.7 319.762 127.619L319.497 128.714Z" fill="#C97440"/>
<path d="M324.894 125.352C325.734 122.963 329.832 113.247 323.738 112.954C323.358 109.139 318.041 107.127 311.401 105.828C304.761 104.529 300.618 107.633 301.122 110.733C301.627 113.832 305.705 114.965 308.941 114.044C309.865 117.397 314.318 116.265 315.288 115.595C316.034 118.843 319.733 119.63 319.313 121.893C318.894 124.156 318.704 126.461 318.621 126.923C318.539 127.385 320.47 128.285 320.892 127.363C321.315 126.441 322.97 124.785 324.894 125.352Z" fill="#31241C"/>
</svg>
